<svg xmlns="http://www.w3.org/2000/svg" xmlns:xlink="http://www.w3.org/1999/xlink" width="12.75" height="12.75" viewBox="0 0 12.75 12.75">
  <defs>
    <filter id='syi57345' x="497.781" y="1723.44" width="12.75" height="12.75" filterUnits="userSpaceOnUse">
      <feFlood result="flood" flood-color="#fac81b"/>
      <feComposite result="composite" operator="in" in2="SourceGraphic"/>
      <feBlend result="blend" in2="SourceGraphic"/>
    </filter>
  </defs>
  <path id='dof39361' data-name="ïƒ" class="cls-1" d="M508.823,1733.34l-1.149,1.14a0.737,0.737,0,0,1-.531.21,0.723,0.723,0,0,1-.531-0.21L505,1732.86a0.724,0.724,0,0,1-.219-0.53,0.753,0.753,0,0,1,.258-0.57,1.594,1.594,0,0,1,.144.15,1.877,1.877,0,0,0,.168.16,1.558,1.558,0,0,0,.149.12,0.641,0.641,0,0,0,.2.1,0.73,0.73,0,0,0,.215.03,0.749,0.749,0,0,0,.75-0.75,0.7,0.7,0,0,0-.028-0.21,0.526,0.526,0,0,0-.1-0.2,1.612,1.612,0,0,0-.117-0.15c-0.029-.03-0.085-0.09-0.168-0.17s-0.133-.13-0.149-0.14a0.767,0.767,0,0,1,1.094-.04l1.625,1.63a0.739,0.739,0,0,1,0,1.05h0Zm-5.531-5.46a1.415,1.415,0,0,1-.145-0.15,1.877,1.877,0,0,0-.168-0.16,1.654,1.654,0,0,0-.148-0.12,0.652,0.652,0,0,0-.2-0.1,0.735,0.735,0,0,0-.215-0.03,0.748,0.748,0,0,0-.75.75,0.733,0.733,0,0,0,.027.21,0.514,0.514,0,0,0,.1.2,1.327,1.327,0,0,0,.117.15c0.028,0.03.084,0.09,0.168,0.17s0.133,0.13.148,0.15a0.758,0.758,0,0,1-.562.24,0.724,0.724,0,0,1-.532-0.21l-1.625-1.63a0.741,0.741,0,0,1,0-1.05l1.149-1.14a0.756,0.756,0,0,1,.531-0.21,0.739,0.739,0,0,1,.531.21l1.61,1.62a0.727,0.727,0,0,1,.218.53,0.752,0.752,0,0,1-.257.57h0Zm6.593,3.35-1.625-1.63a2.152,2.152,0,0,0-1.593-.65,2.175,2.175,0,0,0-1.625.68l-0.688-.68a2.219,2.219,0,0,0,.688-1.64,2.15,2.15,0,0,0-.649-1.58l-1.609-1.62a2.27,2.27,0,0,0-3.18-.02l-1.148,1.14a2.245,2.245,0,0,0-.008,3.18l1.625,1.63a2.163,2.163,0,0,0,1.594.66,2.186,2.186,0,0,0,1.625-.69l0.687,0.69a2.181,2.181,0,0,0-.687,1.63,2.149,2.149,0,0,0,.648,1.58l1.609,1.62a2.245,2.245,0,0,0,3.18.02l1.149-1.14a2.244,2.244,0,0,0,.007-3.18h0Z" transform="translate(-497.781 -1723.44)"/>
</svg>